<?xml version="1.0" encoding="utf-8"?>
<!-- Generator: Adobe Illustrator 19.2.0, SVG Export Plug-In . SVG Version: 6.00 Build 0)  -->
<svg version="1.1" id="Layer_1" xmlns="http://www.w3.org/2000/svg" xmlns:xlink="http://www.w3.org/1999/xlink" x="0px" y="0px"
	 width="66px" height="66px" viewBox="0 0 66 66" style="enable-background:new 0 0 66 66;" xml:space="preserve">
<style type="text/css">
	.st0{fill:#F18F2A;}
	.st1{fill:#AEAEAE;}
</style>
<g>
	<path class="st0" d="M59.5,62.4H7.4c-1.6,0-3-1.3-3-2.9V6.3c0-1.6,1.3-3,3-3h32c1.6,0,3,1.3,3,3c0,1.6-1.3,2.9-3,2.9h-29v47.2h46.2
		V27c0-1.6,1.3-2.9,3-2.9c1.6,0,2.9,1.3,2.9,2.9v32.4C62.4,61,61.1,62.4,59.5,62.4z"/>
	<path class="st1" d="M61.2,10c-0.2-1.7-1.1-3.3-2.5-4.8c-1.6-1.6-3.6-2.5-5.6-2.5c-1.7,0-3.3,0.7-4.6,2L29.1,24.2c0,0,0,0,0,0
		c-0.1,0.1-0.1,0.1-0.2,0.2c0,0.1-0.1,0.1-0.1,0.2c0,0.1-0.1,0.1-0.1,0.2c0,0.1-0.1,0.2-0.1,0.3c0,0,0,0,0,0l-5,12.6
		c-0.4,0.9-0.1,2,0.6,2.6c0.5,0.4,1.1,0.7,1.7,0.7c0.3,0,0.7-0.1,1-0.2L39,35.4c0,0,0,0,0,0l0.1,0c0,0,0.1-0.1,0.1-0.1
		c0.1,0,0.2-0.1,0.3-0.1c0.1-0.1,0.1-0.1,0.2-0.2c0,0,0.1-0.1,0.1-0.1l19.5-19.5C60.8,13.9,61.5,12,61.2,10z M31.7,30.3l2.1,2.1
		l-3.6,1.6L31.7,30.3z M55.9,11.9L38.1,29.7l-3.8-3.8L52.1,8.1c0.5-0.5,0.9-0.5,1.1-0.5c0.6,0,1.4,0.4,2.1,1.1
		c0.6,0.6,1,1.3,1.1,1.9C56.5,10.9,56.4,11.4,55.9,11.9z"/>
</g>
</svg>
