<?xml version="1.0" encoding="utf-8"?>
<!-- Generator: Adobe Illustrator 19.2.0, SVG Export Plug-In . SVG Version: 6.00 Build 0)  -->
<svg version="1.1" id="Layer_1" xmlns="http://www.w3.org/2000/svg" xmlns:xlink="http://www.w3.org/1999/xlink" x="0px" y="0px"
	 width="30px" height="30px" viewBox="0 0 30 30" style="enable-background:new 0 0 30 30;" xml:space="preserve">
<style type="text/css">
	.st0{fill:#FFFFFF;}
</style>
<g>
	<path class="st0" d="M15.8,1.1c-7.7,0-14,6.3-14,14s6.3,14,14,14c7.7,0,14-6.3,14-14S23.6,1.1,15.8,1.1z M24.1,16H17v7.4
		c0,0.8-0.2,1.4-1,1.4s-1-0.6-1-1.4V16H7.6c-0.8,0-1.4-0.2-1.4-1c0-0.8,0.6-1,1.4-1H15V6.9c0-0.8,0.2-1.4,1-1.4s1,0.6,1,1.4V14h7.1
		c0.8,0,1.4,0.2,1.4,1C25.4,15.8,24.8,16,24.1,16z"/>
</g>
</svg>
