<?xml version="1.0" encoding="utf-8"?>
<!-- Generator: Adobe Illustrator 19.2.0, SVG Export Plug-In . SVG Version: 6.00 Build 0)  -->
<svg version="1.1" id="Layer_1" xmlns="http://www.w3.org/2000/svg" xmlns:xlink="http://www.w3.org/1999/xlink" x="0px" y="0px"
	 width="66px" height="66px" viewBox="0 0 66 66" style="enable-background:new 0 0 66 66;" xml:space="preserve">
<style type="text/css">
	.st0{fill:#F18E28;}
	.st1{fill:#AEAEAE;}
</style>
<g>
	<path class="st0" d="M19.1,27.7c-7,0-12.8-4.8-12.8-10.7V5c0-1.6,1.3-2.9,2.9-2.9c1.6,0,2.9,1.3,2.9,2.9V17c0,2.7,3.2,5,7,5
		c3.8,0,7-2.3,7-5V5c0-1.6,1.3-2.9,2.9-2.9c1.6,0,2.9,1.3,2.9,2.9V17C31.9,22.9,26.1,27.7,19.1,27.7z"/>
	<path class="st0" d="M19.1,63.8c-1.6,0-2.9-1.3-2.9-2.9V5c0-1.6,1.3-2.9,2.9-2.9C20.7,2.2,22,3.4,22,5V61
		C22,62.6,20.7,63.8,19.1,63.8z"/>
	<path class="st1" d="M56.8,63.8c-1.6,0-2.9-1.3-2.9-2.9V36.4h-9.7c-1.6,0-2.9-1.3-2.9-2.9c0-29.4,14.6-31.2,15.2-31.3
		c0.8-0.1,1.6,0.2,2.2,0.7c0.6,0.5,0.9,1.3,0.9,2.1V61C59.7,62.6,58.4,63.8,56.8,63.8z M47.1,30.6h6.8V9.7
		C51.2,12.1,47.6,17.8,47.1,30.6z"/>
</g>
</svg>
