<?xml version="1.0" encoding="utf-8"?>
<!-- Generator: Adobe Illustrator 19.2.0, SVG Export Plug-In . SVG Version: 6.00 Build 0)  -->
<svg version="1.1" id="Layer_1" xmlns="http://www.w3.org/2000/svg" xmlns:xlink="http://www.w3.org/1999/xlink" x="0px" y="0px"
	 width="20px" height="20px" viewBox="0 0 20 20" style="enable-background:new 0 0 20 20;" xml:space="preserve">
<style type="text/css">
	.st0{fill:#FFFFFF;}
</style>
<g>
	<path class="st0" d="M7.3,14.1c-2.1,0-3.8-1.5-3.8-3.4c0-1.5,1.1-2.8,2.6-3.2c0.1-0.6,0.2-1.2,0.4-1.7c-2.7,0.3-4.8,2.4-4.8,4.9
		c0,1.4,0.6,2.6,1.7,3.5c1,1.2-0.7,2.3-0.9,2.5c-0.1,0.1,0.1,0.1,0.1,0.1c1.3,0.3,2.6-0.5,3.3-1.1c0.3-0.2,1-0.2,1-0.2l0,0
		c0.1,0,0.3,0,0.4,0c1.6,0,3.1-0.6,4.1-1.6c-0.6-0.1-1.2-0.3-1.8-0.6C8.9,13.8,8.1,14.1,7.3,14.1z"/>
	<path class="st0" d="M16.6,11.5c1-0.9,1.7-2.2,1.7-3.5c0-2.7-2.5-5-5.5-5c-3,0-5.5,2.2-5.5,5c0,2.7,2.5,5,5.5,5c0.1,0,0.3,0,0.4,0
		l0,0c0,0,0.7-0.1,1,0.2c0.7,0.6,1.9,1.4,3.3,1.1c0,0,0.1,0,0.1-0.1C17.3,13.9,15.6,12.8,16.6,11.5z M10.5,8.9
		c-0.4,0-0.8-0.4-0.8-0.8c0-0.4,0.4-0.8,0.8-0.8c0.4,0,0.8,0.4,0.8,0.8C11.3,8.6,10.9,8.9,10.5,8.9z M12.8,8.9
		c-0.4,0-0.8-0.4-0.8-0.8c0-0.4,0.4-0.8,0.8-0.8c0.4,0,0.8,0.4,0.8,0.8C13.6,8.6,13.3,8.9,12.8,8.9z M15.2,8.9
		c-0.4,0-0.8-0.4-0.8-0.8c0-0.4,0.4-0.8,0.8-0.8c0.4,0,0.8,0.4,0.8,0.8C16,8.6,15.7,8.9,15.2,8.9z"/>
</g>
</svg>
