<?xml version="1.0" encoding="utf-8"?>
<!-- Generator: Adobe Illustrator 19.2.0, SVG Export Plug-In . SVG Version: 6.00 Build 0)  -->
<svg version="1.1" id="Layer_1" xmlns="http://www.w3.org/2000/svg" xmlns:xlink="http://www.w3.org/1999/xlink" x="0px" y="0px"
	 width="78px" height="78px" viewBox="0 0 78 78" style="enable-background:new 0 0 78 78;" xml:space="preserve">
<style type="text/css">
	.st0{fill:#E78A2C;}
	.st1{fill:#AEAEAE;}
</style>
<g>
	<path class="st0" d="M14.7,42.3c-0.2,0-0.5,0-0.7-0.1c-4.6-1.7-8.4-6-10-11.6C2,24.1,3.3,16.9,7.2,11.9c4.3-5.4,11.7-8,18-6.4
		c4.3,1.1,7.7,3.8,10.5,6.4c0.6,0.6,1.2,1.1,1.8,1.7c2.2,2,4.2,3.9,6.5,5.3c1.7,1,6,3.2,9.4,1.2c1.1-0.6,2.4-0.3,3,0.8
		c0.6,1.1,0.3,2.4-0.8,3c-3.8,2.2-8.9,1.8-13.9-1.3c-2.7-1.7-5-3.8-7.2-5.9c-0.6-0.6-1.2-1.1-1.8-1.6c-2.4-2.2-5.3-4.5-8.7-5.4
		c-4.7-1.2-10.2,0.8-13.4,4.8c-3.1,3.9-4.1,9.6-2.5,14.8c1.2,4.2,4,7.5,7.3,8.7c1.1,0.4,1.7,1.7,1.3,2.8
		C16.5,41.8,15.6,42.3,14.7,42.3z"/>
	<path class="st1" d="M55.4,68.6h-38c-1.2,0-2.2-1-2.2-2.2v-21c0-1.2,1-2.2,2.2-2.2s2.2,1,2.2,2.2v18.8h35.8c1.2,0,2.2,1,2.2,2.2
		C57.6,67.6,56.6,68.6,55.4,68.6z"/>
	<path class="st1" d="M61.5,68.6c-1.2,0-2.2-1-2.2-2.2V45.2c0-3,1.9-5.7,4.7-6.7c2.9-1,5.1-2.9,6.5-5.4c1.6-3,2-6.9,1-10.6
		c-1-3.7-3.1-6.8-5.9-8.4c-3.2-1.9-7-1.8-9.6-1.4c-3.3,0.5-6.8,1.6-10.6,3.2c-1.1,0.5-2.4,0-2.9-1.1c-0.5-1.1,0-2.4,1.1-2.9
		c4.1-1.8,8.1-3,11.7-3.6c3.3-0.5,8.1-0.5,12.5,2c3.8,2.2,6.7,6.3,8,11.1c1.2,4.8,0.7,9.8-1.4,13.8c-1.9,3.5-5.1,6.2-9,7.5
		c-1,0.4-1.7,1.4-1.7,2.5v21.2C63.7,67.6,62.7,68.6,61.5,68.6z"/>
</g>
</svg>
