<?xml version="1.0" encoding="utf-8"?>
<!-- Generator: Adobe Illustrator 19.2.0, SVG Export Plug-In . SVG Version: 6.00 Build 0)  -->
<svg version="1.1" id="Layer_1" xmlns="http://www.w3.org/2000/svg" xmlns:xlink="http://www.w3.org/1999/xlink" x="0px" y="0px"
	 width="28px" height="20px" viewBox="0 0 28 20" style="enable-background:new 0 0 28 20;" xml:space="preserve">
<style type="text/css">
	.st0{fill:#F18F2A;}
</style>
<path class="st0" d="M26.3,0.8H1.7C1,0.8,0.4,1.4,0.4,2.1v15.8c0,0.7,0.6,1.3,1.3,1.3h24.6c0.7,0,1.3-0.6,1.3-1.3V2.1
	C27.6,1.4,27,0.8,26.3,0.8z M25,15.5c0.4,0.4,0.4,1,0,1.4c-0.4,0.4-1,0.4-1.4,0l-5.4-5.4c-0.1,0.1-0.2,0.2-0.2,0.2
	c-0.6,0.7-1.3,1.4-2.1,1.8c-0.6,0.3-1.2,0.4-1.8,0.4h0c-0.6,0-1.3-0.1-1.8-0.4c-0.8-0.4-1.5-1.1-2.1-1.8c-0.1-0.1-0.2-0.2-0.2-0.2
	l-5.4,5.4c-0.4,0.4-1,0.4-1.4,0c-0.4-0.4-0.4-1,0-1.4L8.4,10L3,4.6c-0.4-0.4-0.4-1,0-1.4c0.4-0.4,1-0.4,1.4,0l7.9,7.9
	c0.5,0.5,1,0.8,1.7,0.8c0.7,0,1.2-0.4,1.7-0.8l7.9-7.9c0.4-0.4,1-0.4,1.4,0c0.4,0.4,0.4,1,0,1.4L19.6,10L25,15.5z"/>
</svg>
