<?xml version="1.0" encoding="utf-8"?>
<!-- Generator: Adobe Illustrator 19.2.0, SVG Export Plug-In . SVG Version: 6.00 Build 0)  -->
<svg version="1.1" id="Layer_1" xmlns="http://www.w3.org/2000/svg" xmlns:xlink="http://www.w3.org/1999/xlink" x="0px" y="0px"
	 width="24px" height="24px" viewBox="0 0 24 24" style="enable-background:new 0 0 24 24;" xml:space="preserve">
<style type="text/css">
	.st0{fill:#828182;}
	.st1{fill:#FFFFFF;}
</style>
<path class="st0" d="M19,22.4H5c-2.2,0-4-1.8-4-4V5.6c0-2.2,1.8-4,4-4h14c2.2,0,4,1.8,4,4v12.7C23,20.6,21.2,22.4,19,22.4z"/>
<g>
	<path class="st1" d="M8.4,7.5c0-0.3,0-0.7,0-1.1c0-0.4,0-0.7-0.1-1.1h4.4c0.7,0,1.4,0.1,2.1,0.2c0.7,0.1,1.3,0.4,1.9,0.7
		c0.6,0.3,1,0.8,1.3,1.3c0.3,0.5,0.5,1.2,0.5,2.1c0,0.7-0.2,1.4-0.5,1.9c-0.3,0.5-0.7,1-1.2,1.3c-0.5,0.4-1.1,0.6-1.8,0.8
		c-0.7,0.2-1.4,0.2-2.1,0.2h-2.3v3.9c0,0.2,0,0.5,0,0.8c0,0.3,0,0.6,0.1,0.8H8.3c0-0.3,0-0.7,0.1-1.1c0-0.4,0-0.7,0-1.1V7.5z
		 M10.7,11.9h2.5c0.4,0,0.7,0,1.1-0.1c0.4-0.1,0.7-0.2,1-0.4c0.3-0.2,0.5-0.4,0.7-0.7c0.2-0.3,0.3-0.6,0.3-1c0-0.4-0.1-0.8-0.3-1.1
		c-0.2-0.3-0.4-0.5-0.7-0.7c-0.3-0.2-0.7-0.3-1.1-0.4c-0.4-0.1-0.8-0.1-1.2-0.1h-2.2V11.9z"/>
</g>
</svg>
