<?xml version="1.0" encoding="utf-8"?>
<!-- Generator: Adobe Illustrator 19.2.0, SVG Export Plug-In . SVG Version: 6.00 Build 0)  -->
<svg version="1.1" id="Layer_1" xmlns="http://www.w3.org/2000/svg" xmlns:xlink="http://www.w3.org/1999/xlink" x="0px" y="0px"
	 width="73px" height="50px" viewBox="0 0 73 50" style="enable-background:new 0 0 73 50;" xml:space="preserve">
<style type="text/css">
	.st0{fill:#AEAEAE;}
	.st1{fill:#E78A2C;}
</style>
<g>
	<g>
		<g>
			<path class="st0" d="M62.5,48.6H11.2c-5.1,0-9.2-4.1-9.2-9.2V12.9c0-5.1,4.1-9.2,9.2-9.2h51.3c5.1,0,9.2,4.1,9.2,9.2v26.4
				C71.7,44.4,67.6,48.6,62.5,48.6z M11.2,8.5c-2.5,0-4.4,2-4.4,4.4v26.4c0,2.5,2,4.4,4.4,4.4h51.3c2.5,0,4.4-2,4.4-4.4V12.9
				c0-2.5-2-4.4-4.4-4.4H11.2z"/>
		</g>
	</g>
	<g>
		<path class="st1" d="M59.1,19.3H13.6c-1.7,0-3.1-1.3-3.1-2.9c0-1.6,1.4-2.9,3.1-2.9h45.5c1.7,0,3.1,1.3,3.1,2.9
			C62.2,18,60.8,19.3,59.1,19.3z"/>
	</g>
</g>
</svg>
