<?xml version="1.0" encoding="utf-8"?>
<!-- Generator: Adobe Illustrator 19.2.0, SVG Export Plug-In . SVG Version: 6.00 Build 0)  -->
<svg version="1.1" id="Layer_1" xmlns="http://www.w3.org/2000/svg" xmlns:xlink="http://www.w3.org/1999/xlink" x="0px" y="0px"
	 width="24px" height="24px" viewBox="0 0 24 24" style="enable-background:new 0 0 24 24;" xml:space="preserve">
<style type="text/css">
	.st0{fill:#828182;}
</style>
<g>
	<path class="st0" d="M16.8,16.2c-0.5-0.5-1.2-0.5-1.7-0.1l-2,2c-0.2,0.2-0.3,0.4-0.3,0.6c-1.4-0.9-2.8-2.1-4.1-3.4l0,0l0,0
		c-1.4-1.4-2.5-2.8-3.4-4.1c0.2,0,0.4-0.1,0.6-0.3l2-2c0.4-0.4,0.4-1.2-0.1-1.7L5.7,4.4c-0.5-0.5-1-1-2.2-0.6
		c-1.1,0.4-2.8,2-2.8,4.3c0,2.4,2,6,5.5,9.5l0,0c0,0,0,0,0,0c0,0,0,0,0,0l0,0c3.5,3.5,7.2,5.6,9.6,5.6c2.3,0,4-1.8,4.3-2.8
		c0.4-1.2-0.1-1.7-0.6-2.2L16.8,16.2z"/>
	<path class="st0" d="M16.9,11.9c0,0.6,0.5,1.1,1.1,1.1s1.1-0.5,1.1-1.1c0-3.9-3.2-7.1-7.1-7.1C11.5,4.9,11,5.4,11,6
		s0.5,1.1,1.1,1.1C14.8,7.1,16.9,9.2,16.9,11.9z"/>
	<path class="st0" d="M12.1,0.6c-0.6,0-1.1,0.5-1.1,1.1c0,0.6,0.5,1.1,1.1,1.1c5,0,9.1,4.1,9.1,9.1c0,0.6,0.5,1.1,1.1,1.1
		s1.1-0.5,1.1-1.1C23.4,5.7,18.3,0.6,12.1,0.6z"/>
</g>
</svg>
